Cover ::
 
http://i.minus.com/ibt6bvRN6G7WvN.png


Screen ::
 
http://i.minus.com/iDrdWJ3SPmHzi.png
 
http://i.minus.com/ibb1a51sv4VHwD.png
 
http://i.minus.com/ibcqQySs9Ka7zD.png
 
http://i.minus.com/iBlv8plIfcUuh.png
 
http://i.minus.com/iGyfySBpck3ZZ.jpg

General Info ::
Format                           : AVI
Format/Info                      : Audio Video Interleave
File size                        : 51.2 MiB
Duration                         : 2mn 10s
Overall bit rate                 : 3 284 Kbps


Video Info ::
ID                               : 0
Format                           : AVC
Format/Info                      : Advanced Video Codec
Format profile                   : High@L5.1
Format settings, CABAC           : Yes
Format settings, ReFrames        : 2 frames
Codec ID                         : H264
Duration                         : 10s 0ms
Bit rate                         : 2 955 Kbps
Width                            : 1 280 pixels
Height                           : 544 pixels
Display aspect ratio             : 2.35:1
Frame rate                       : 30.000 fps
Color space                      : YUV
Chroma subsampling               : 4:2:0
Bit depth                        : 8 bits
Scan type                        : Progressive
Bits/(Pixel*Frame)               : 0.141
Stream size                      : 46.0 MiB (90%)


Audio Info ::
ID                               : 1
Format                           : MPEG Audio
Format version                   : Version 1
Format profile                   : Layer 3
Codec ID                         : 55
Codec ID/Hint                    : MP3
Duration                         : 2mn 10s
Bit rate mode                    : Constant
Bit rate                         : 320 Kbps
Channel(s)                       : 2 channels
Sampling rate                    : 48.0 KHz
Compression mode                 : Lossy
Stream size                      : 4.99 MiB (10%)